<?xml version="1.0" encoding="UTF-8" standalone="no"?>
<!DOCTYPE svg PUBLIC "-//W3C//DTD SVG 1.1//EN"
 "http://www.w3.org/Graphics/SVG/1.1/DTD/svg11.dtd">
<!-- Generated by graphviz version 2.38.0 (20140413.2041)
 -->
<!-- Title: plot Pages: 1 -->
<svg width="214pt" height="442pt"
 viewBox="0.00 0.00 214.00 442.00" xmlns="http://www.w3.org/2000/svg" xmlns:xlink="http://www.w3.org/1999/xlink">
<g id="graph0" class="graph" transform="scale(1 1) rotate(0) translate(4 438)">
<title>plot</title>
<polygon fill="white" stroke="none" points="-4,4 -4,-438 210,-438 210,4 -4,4"/>
<!-- data -->
<g id="node1" class="node"><title>data</title>
<ellipse fill="#8dd3c7" stroke="black" cx="47" cy="-29" rx="47" ry="29"/>
<text text-anchor="middle" x="47" y="-24.8" font-family="Times,serif" font-size="14.00">data</text>
</g>
<!-- fc1 -->
<g id="node2" class="node"><title>fc1</title>
<polygon fill="#fb8072" stroke="black" points="94,-152 -7.10543e-15,-152 -7.10543e-15,-94 94,-94 94,-152"/>
<text text-anchor="middle" x="47" y="-125.8" font-family="Times,serif" font-size="14.00">FullyConnected</text>
<text text-anchor="middle" x="47" y="-111.8" font-family="Times,serif" font-size="14.00">128</text>
</g>
<!-- fc1&#45;&gt;data -->
<g id="edge1" class="edge"><title>fc1&#45;&gt;data</title>
<path fill="none" stroke="black" d="M47,-83.7443C47,-75.2043 47,-66.2977 47,-58.2479"/>
<polygon fill="black" stroke="black" points="47,-93.8971 42.5001,-83.897 47,-88.8971 47.0001,-83.8971 47.0001,-83.8971 47.0001,-83.8971 47,-88.8971 51.5001,-83.8971 47,-93.8971 47,-93.8971"/>
</g>
<!-- relu1 -->
<g id="node3" class="node"><title>relu1</title>
<polygon fill="#ffffb3" stroke="black" points="94,-246 -7.10543e-15,-246 -7.10543e-15,-188 94,-188 94,-246"/>
<text text-anchor="middle" x="47" y="-219.8" font-family="Times,serif" font-size="14.00">Activation</text>
<text text-anchor="middle" x="47" y="-205.8" font-family="Times,serif" font-size="14.00">relu</text>
</g>
<!-- relu1&#45;&gt;fc1 -->
<g id="edge2" class="edge"><title>relu1&#45;&gt;fc1</title>
<path fill="none" stroke="black" d="M47,-177.744C47,-169.204 47,-160.298 47,-152.248"/>
<polygon fill="black" stroke="black" points="47,-187.897 42.5001,-177.897 47,-182.897 47.0001,-177.897 47.0001,-177.897 47.0001,-177.897 47,-182.897 51.5001,-177.897 47,-187.897 47,-187.897"/>
</g>
<!-- fc2 -->
<g id="node4" class="node"><title>fc2</title>
<polygon fill="#fb8072" stroke="black" points="94,-340 -7.10543e-15,-340 -7.10543e-15,-282 94,-282 94,-340"/>
<text text-anchor="middle" x="47" y="-313.8" font-family="Times,serif" font-size="14.00">FullyConnected</text>
<text text-anchor="middle" x="47" y="-299.8" font-family="Times,serif" font-size="14.00">2</text>
</g>
<!-- fc2&#45;&gt;relu1 -->
<g id="edge3" class="edge"><title>fc2&#45;&gt;relu1</title>
<path fill="none" stroke="black" d="M47,-271.744C47,-263.204 47,-254.298 47,-246.248"/>
<polygon fill="black" stroke="black" points="47,-281.897 42.5001,-271.897 47,-276.897 47.0001,-271.897 47.0001,-271.897 47.0001,-271.897 47,-276.897 51.5001,-271.897 47,-281.897 47,-281.897"/>
</g>
<!-- softmax_label -->
<g id="node5" class="node"><title>softmax_label</title>
<ellipse fill="#8dd3c7" stroke="black" cx="159" cy="-311" rx="47" ry="29"/>
<text text-anchor="middle" x="159" y="-306.8" font-family="Times,serif" font-size="14.00">softmax_label</text>
</g>
<!-- softmax -->
<g id="node6" class="node"><title>softmax</title>
<polygon fill="#fccde5" stroke="black" points="150,-434 56,-434 56,-376 150,-376 150,-434"/>
<text text-anchor="middle" x="103" y="-400.8" font-family="Times,serif" font-size="14.00">SoftmaxOutput</text>
</g>
<!-- softmax&#45;&gt;fc2 -->
<g id="edge4" class="edge"><title>softmax&#45;&gt;fc2</title>
<path fill="none" stroke="black" d="M80.5686,-367.148C75.113,-358.186 69.3635,-348.74 64.1943,-340.248"/>
<polygon fill="black" stroke="black" points="85.8939,-375.897 76.8505,-369.695 83.2941,-371.626 80.6944,-367.355 80.6944,-367.355 80.6944,-367.355 83.2941,-371.626 84.5383,-365.015 85.8939,-375.897 85.8939,-375.897"/>
</g>
<!-- softmax&#45;&gt;softmax_label -->
<g id="edge5" class="edge"><title>softmax&#45;&gt;softmax_label</title>
<path fill="none" stroke="black" d="M125.377,-367.237C131.257,-357.578 137.481,-347.353 142.955,-338.36"/>
<polygon fill="black" stroke="black" points="120.106,-375.897 121.462,-365.015 122.706,-371.626 125.306,-367.355 125.306,-367.355 125.306,-367.355 122.706,-371.626 129.15,-369.695 120.106,-375.897 120.106,-375.897"/>
</g>
</g>
</svg>
